<?xml version="1.0" encoding="utf-8"?>
<!-- Generator: Adobe Illustrator 27.9.0, SVG Export Plug-In . SVG Version: 6.00 Build 0)  -->
<svg version="1.1" id="Layer_1" xmlns="http://www.w3.org/2000/svg" xmlns:xlink="http://www.w3.org/1999/xlink" x="0px" y="0px"
	 viewBox="0 0 1880.78 176.97" style="enable-background:new 0 0 1880.78 176.97;" xml:space="preserve">
<style type="text/css">
	.st0{fill:#FFFFFF;}
	.st1{fill-rule:evenodd;clip-rule:evenodd;fill:#2C2C2C;}
	.st2{fill:#2C2C2C;}
</style>
<rect class="st0" width="1880.78" height="178.25"/>
<g>
	<g>
		<path class="st1" d="M659.1,70.27v32h16c8.77,0,16-7.23,16-16s-7.23-16-16-16H659.1z M706.97,60.78c-3.52,0-6.37-2.85-6.37-6.37
			s2.85-6.37,6.37-6.37s6.37,2.85,6.37,6.37C713.34,57.93,710.49,60.78,706.97,60.78z M659.1,133.73v-5.7V118h16
			c17.45,0,31.73-14.28,31.73-31.73s-14.28-31.73-31.73-31.73h-16h-15.73V118v15.73h-10.85c-2.68,0-4.88-2.2-4.88-4.88V43.7
			c0-2.69,2.2-4.88,4.88-4.88h85.15c2.68,0,4.88,2.2,4.88,4.88v85.15c0,2.69-2.2,4.88-4.88,4.88h-37.15v15.73h38.78
			c10.44,0,18.98-8.54,18.98-18.98V42.07c0-10.44-8.54-18.98-18.98-18.98h-88.4c-10.44,0-18.98,8.54-18.98,18.98v88.41
			c0,10.44,8.54,18.98,18.98,18.98h7.8h4.68h15.73v-15.73H659.1z"/>
		<g>
			<path class="st2" d="M760.62,129.09V48.94h36.64c7.33,0,13.64,1.18,18.95,3.55s9.41,5.78,12.31,10.25s4.35,9.75,4.35,15.86
				c0,6.03-1.45,11.26-4.35,15.69c-2.9,4.43-7,7.84-12.31,10.25c-5.31,2.4-11.62,3.61-18.95,3.61h-24.04l10.07-9.85v30.8h-22.67
				V129.09z M783.29,100.69l-10.07-10.42h22.67c4.73,0,8.26-1.03,10.59-3.09s3.49-4.92,3.49-8.59c0-3.74-1.17-6.64-3.49-8.7
				c-2.33-2.06-5.86-3.09-10.59-3.09h-22.67l10.07-10.42V100.69z"/>
			<path class="st2" d="M843.86,129.09V48.94h22.67v80.15H843.86z"/>
			<path class="st2" d="M922.63,130.69c-6.34,0-12.19-1.01-17.58-3.03c-5.38-2.02-10.04-4.9-13.97-8.64s-7.01-8.15-9.22-13.22
				c-2.22-5.08-3.32-10.67-3.32-16.77c0-6.11,1.11-11.7,3.32-16.77c2.21-5.08,5.28-9.48,9.22-13.22c3.93-3.74,8.59-6.62,13.97-8.64
				c5.38-2.02,11.24-3.03,17.58-3.03c7.4,0,14.03,1.3,19.86,3.89c5.84,2.6,10.71,6.34,14.6,11.22L942.67,75.5
				c-2.6-3.05-5.44-5.38-8.53-6.98c-3.09-1.6-6.54-2.4-10.36-2.4c-3.28,0-6.3,0.54-9.04,1.6c-2.75,1.07-5.09,2.61-7.04,4.64
				c-1.95,2.02-3.47,4.45-4.58,7.27c-1.11,2.82-1.66,5.95-1.66,9.39c0,3.43,0.55,6.57,1.66,9.39s2.63,5.25,4.58,7.27
				s4.29,3.57,7.04,4.64s5.76,1.6,9.04,1.6c3.82,0,7.27-0.8,10.36-2.4c3.09-1.6,5.93-3.93,8.53-6.98l14.43,13.05
				c-3.89,4.81-8.76,8.53-14.6,11.16C936.66,129.37,930.03,130.69,922.63,130.69z"/>
			<path class="st2" d="M989.84,129.09h-22.67V48.94h62.86v17.52h-40.19V129.09z M988.24,84.09h36.98v17.52h-36.98V84.09z"/>
			<path class="st2" d="M1040.68,129.09V48.94h36.64c7.33,0,13.64,1.18,18.95,3.55c5.31,2.37,9.41,5.78,12.31,10.25
				s4.35,9.75,4.35,15.86c0,6.03-1.45,11.24-4.35,15.63s-7,7.75-12.31,10.08s-11.62,3.49-18.95,3.49h-24.04l10.07-9.5v30.8
				L1040.68,129.09L1040.68,129.09z M1063.35,100.69l-10.07-10.42h22.67c4.73,0,8.26-1.03,10.59-3.09s3.49-4.92,3.49-8.59
				c0-3.74-1.17-6.64-3.49-8.7c-2.33-2.06-5.86-3.09-10.59-3.09h-22.67l10.07-10.42V100.69z M1090.25,129.09l-19.92-29.2h24.16
				l20.04,29.2H1090.25z"/>
			<path class="st2" d="M1147.84,111.57h41.91v17.52h-64.35V48.94h62.86v17.52h-40.42V111.57z M1146.24,79.97h37.21v16.94h-37.21
				V79.97z"/>
			<path class="st2" d="M1224.78,111.57h41.91v17.52h-64.35V48.94h62.86v17.52h-40.42V111.57z M1223.18,79.97h37.21v16.94h-37.21
				V79.97z"/>
		</g>
	</g>
</g>
</svg>
